<?xml version="1.0" encoding="UTF-8" standalone="no"?>
<!-- Created with Inkscape (http://www.inkscape.org/) -->

<svg
   version="1.1"
   id="svg1"
   width="954.53363"
   height="862.65491"
   viewBox="0 0 954.53363 862.65491"
   sodipodi:docname="d50.svg"
   inkscape:version="1.4.4 (dcaf3e7d9e, 2026-05-05)"
   xmlns:inkscape="http://www.inkscape.org/namespaces/inkscape"
   xmlns:sodipodi="http://sodipodi.sourceforge.net/DTD/sodipodi-0.dtd"
   xmlns="http://www.w3.org/2000/svg"
   xmlns:svg="http://www.w3.org/2000/svg">
  <defs
     id="defs1">
    <inkscape:path-effect
       effect="bspline"
       id="path-effect4"
       is_visible="true"
       lpeversion="1.3"
       weight="33.333333"
       steps="2"
       helper_size="0"
       apply_no_weight="true"
       apply_with_weight="true"
       only_selected="false"
       uniform="false" />
    <inkscape:path-effect
       effect="bspline"
       id="path-effect3"
       is_visible="true"
       lpeversion="1.3"
       weight="33.333333"
       steps="2"
       helper_size="0"
       apply_no_weight="true"
       apply_with_weight="true"
       only_selected="false"
       uniform="false" />
    <inkscape:path-effect
       effect="bspline"
       id="path-effect2"
       is_visible="true"
       lpeversion="1.3"
       weight="33.333333"
       steps="2"
       helper_size="0"
       apply_no_weight="true"
       apply_with_weight="true"
       only_selected="false"
       uniform="false" />
    <inkscape:path-effect
       effect="bspline"
       id="path-effect1"
       is_visible="true"
       lpeversion="1.3"
       weight="33.333333"
       steps="2"
       helper_size="0"
       apply_no_weight="true"
       apply_with_weight="true"
       only_selected="false"
       uniform="false" />
    <inkscape:path-effect
       effect="bspline"
       id="path-effect2-7"
       is_visible="true"
       lpeversion="1.3"
       weight="33.333333"
       steps="2"
       helper_size="0"
       apply_no_weight="true"
       apply_with_weight="true"
       only_selected="false"
       uniform="false" />
    <inkscape:path-effect
       effect="bspline"
       id="path-effect2-6"
       is_visible="true"
       lpeversion="1.3"
       weight="33.333333"
       steps="2"
       helper_size="0"
       apply_no_weight="true"
       apply_with_weight="true"
       only_selected="false"
       uniform="false" />
    <inkscape:path-effect
       effect="bspline"
       id="path-effect1-0"
       is_visible="true"
       lpeversion="1.3"
       weight="33.333333"
       steps="2"
       helper_size="0"
       apply_no_weight="true"
       apply_with_weight="true"
       only_selected="false"
       uniform="false" />
  </defs>
  <sodipodi:namedview
     id="namedview1"
     pagecolor="#414141"
     bordercolor="#000000"
     borderopacity="0.25"
     inkscape:showpageshadow="2"
     inkscape:pageopacity="0.0"
     inkscape:pagecheckerboard="true"
     inkscape:deskcolor="#000000"
     inkscape:zoom="0.66431078"
     inkscape:cx="389.87776"
     inkscape:cy="61.718101"
     inkscape:window-width="1892"
     inkscape:window-height="1159"
     inkscape:window-x="0"
     inkscape:window-y="0"
     inkscape:window-maximized="1"
     inkscape:current-layer="g1" />
  <g
     inkscape:groupmode="layer"
     inkscape:label="Image"
     id="g1"
     transform="translate(-122.73317,-21.171648)">
    <g
       id="g4"
       transform="translate(17.353285,-22.670713)">
      <path
         id="path2"
         style="display:inline;fill:none;fill-opacity:1;stroke:#ffffff;stroke-width:9;stroke-dasharray:none;stroke-opacity:1"
         d="m 655.94727,48.365234 c -4.52045,-0.0861 -8.46766,0.07471 -12.33008,0.394532 -7.72485,0.639643 -15.10574,1.919568 -20.71485,3.248046 -5.60911,1.32848 -9.44686,2.706073 -12.96875,3.345704 -3.52189,0.63963 -6.7279,0.539453 -12.18945,3.048828 -5.46154,2.509374 -13.17887,7.627202 -22.89258,14.515625 -9.7137,6.888423 -21.42322,15.548184 -31.0039,22.408203 -9.58069,6.860018 -17.03111,11.919598 -39.26563,13.197268 -22.23452,1.27767 -59.25303,-1.22785 -85.06836,-4.70703 -25.81533,-3.47918 -40.42707,-7.932256 -54.34375,-10.78516 -13.91667,-2.852904 -27.1369,-4.103761 -38.89648,-4.3125 -11.75958,-0.208739 -22.05825,0.626072 -33.95703,3.339844 -11.89878,2.713771 -25.39648,7.305812 -40.4961,14.124996 -15.09961,6.8192 -31.80001,15.86352 -47.94336,25.95313 -16.14334,10.0896 -31.72852,21.22361 -42.72265,31.93945 -10.99414,10.71584 -17.39676,21.01419 -22.26758,30.75586 -4.87082,9.74167 -8.21078,18.92641 -11.55078,26.90625 -3.34001,7.97984 -6.67893,14.7535 -8.51172,19.92383 -0.43375,1.22362 -0.78345,2.35788 -1.03906,3.48437 0.30983,1.24618 0.71121,3.23837 1.30078,6.32813 1.36126,7.13404 3.72318,20.12189 11.5957,29.76562 7.87252,9.64374 21.25506,15.94268 39.55859,17.32032 18.30353,1.37763 41.52669,-2.16565 64.94727,-9.64453 23.42058,-7.47888 47.03835,-18.89289 62.7832,-25.78125 15.74485,-6.88836 23.61566,-9.25091 29.7168,-7.08594 6.10114,2.16497 10.43157,8.85781 16.33594,12.40039 5.90436,3.54258 13.38235,3.93586 24.20703,4.91992 10.82467,0.98406 24.99585,2.55742 35.0332,3.73828 10.03735,1.18087 15.94118,1.96851 17.51563,8.66016 1.57445,6.69165 -1.18214,19.28821 -3.9375,29.91601 -1.62698,6.27544 -3.25299,11.87764 -5.12305,29.625 1.27953,-0.71829 2.45097,-1.35178 3.82813,-2.13086 5.51156,-3.11796 11.80118,-6.59814 19.22656,-10.0957 0.41725,-0.19654 0.95052,-0.38739 1.375,-0.58398 2.76641,-1.28204 5.80774,-2.51877 8.90234,-3.78321 1.55887,-0.63717 2.86846,-1.29381 4.51758,-1.91992 0.19361,-0.0735 0.44183,-0.13761 0.63672,-0.21094 5.24399,-1.97323 10.88874,-3.8842 17.13086,-5.65234 14.18331,-4.01756 31.12708,-7.32877 47.89844,-9.78516 11.1836,-1.63798 22.29054,-2.89536 32.45117,-3.73046 12.69894,-1.04373 23.91842,-1.42605 34.19922,-1.07813 10.28079,0.34792 19.62299,1.42592 28.56445,3.30469 17.88291,3.75753 34.16491,10.71675 51.76953,21.1543 17.60462,10.43753 36.53097,24.35348 53.0918,40.00976 16.56082,15.65628 30.75509,33.05185 42.23633,51.42188 11.48123,18.37003 20.24923,37.71253 26.51171,64.15429 6.26248,26.44176 10.01888,59.98006 9.39258,85.65625 -0.62629,25.6762 -5.63519,43.48951 -11.82812,59.07617 -3.41752,8.60136 -7.19645,16.52403 -11.50977,24.48243 v 0.002 h -0.002 c -0.0912,0.16746 -37.7319,69.26893 -107.29102,119.37695 5.51259,1.61177 15.01046,3.64927 30.78125,6.85547 34.84577,7.08414 100.3052,19.8739 144.69727,26.07227 44.39206,6.19836 67.71394,5.80458 87.83789,1.7207 20.12395,-4.08388 37.04948,-11.85742 52.35156,-21.59961 15.30208,-9.74219 28.97957,-21.45241 38.08197,-31.29297 9.1026,-9.84056 13.629,-17.81013 16.1876,-25.04297 2.5585,-7.23283 3.1494,-13.72825 3.5429,-20.17383 0.3937,-6.44556 0.5916,-12.84189 1.3789,-17.95898 0.7873,-5.11709 2.163,-8.95353 1.2773,-8.9043 -0.8856,0.0492 -4.0341,3.98384 -8.0195,7.13282 -3.9854,3.14898 -8.8069,5.51227 -11.8574,4.67578 -3.0506,-0.83649 -4.3306,-4.87172 -4.7735,-12.99024 -0.4428,-8.11852 -0.049,-20.32044 0.6895,-31.58789 0.738,-11.26745 1.8206,-21.59923 2.5586,-28.83203 0.738,-7.23279 1.1327,-11.36733 3.4453,-15.45117 2.3126,-4.08384 6.5432,-8.11822 9.8398,-11.31641 3.2966,-3.19818 5.6583,-5.55842 6.6914,-12.49609 1.0335,-6.93767 0.7373,-18.45206 1.1309,-53.43555 0.3936,-34.98349 1.4774,-93.43485 2.9043,-125.61328 1.4269,-32.17843 3.1968,-38.08288 5.3125,-43.10156 2.1157,-5.01869 4.5772,-9.15167 5.2168,-13.08789 0.6396,-3.93623 -0.5416,-7.67433 -2.5098,-10.42969 -1.9681,-2.75536 -4.7232,-4.52693 -6.4453,-9.44726 -1.7221,-4.92035 -2.4123,-12.98938 -3.1504,-17.4668 -0.738,-4.47742 -1.5252,-5.36318 -2.3125,-8.70899 -0.7872,-3.34581 -1.5741,-9.15228 -2.6074,-13.77734 -1.0333,-4.62506 -2.3123,-8.06791 -5.4121,-14.02148 -3.0998,-5.95358 -8.0193,-14.41745 -12.1523,-22.4375 -4.1331,-8.02006 -7.4791,-15.59572 -24.30663,-29.17579 -16.82753,-13.58006 -47.13593,-33.16245 -62.38867,-43.64257 -15.25275,-10.48013 -15.44827,-11.85752 -18.64649,-12.10352 -3.19822,-0.246 -9.39764,0.63925 -15.40039,-3.78906 -6.00275,-4.42832 -11.80885,-14.16942 -18.69726,-24.74805 C 871.17794,128.2222 863.2061,116.80667 855.62886,108.3438 848.05166,99.880882 840.8693,94.371157 830.33984,89.746094 819.81039,85.12103 805.93479,81.381026 792.69922,78.28125 779.46365,75.181474 766.86863,72.72073 754.37109,69.128906 741.87356,65.537083 729.47544,60.813255 715.00977,57.123047 700.54409,53.432839 684.01162,50.777683 671.71094,49.449219 665.5606,48.784987 660.46771,48.451337 655.94727,48.365234 Z" />
      <path
         id="path4"
         style="fill:none;fill-opacity:1;stroke:#ffffff;stroke-width:5;stroke-dasharray:none;stroke-opacity:1"
         d="m 1051.7461,350.13867 c -0.9421,3.46655 -3.0341,7.14985 -4.8672,11.49805 -2.1157,5.01868 -3.8856,10.92313 -5.3125,43.10156 -1.4269,32.17843 -2.5107,90.62979 -2.9043,125.61328 -0.3936,34.98349 -0.098,46.49788 -1.1309,53.43555 -1.0332,6.93767 -3.3948,9.29791 -6.6914,12.49609 -3.2966,3.19819 -7.5272,7.23257 -9.8398,11.31641 -2.3126,4.08384 -2.7073,8.21838 -3.4453,15.45117 -0.738,7.2328 -1.8206,17.56458 -2.5586,28.83203 -0.7381,11.26745 -1.1323,23.46937 -0.6895,31.58789 0.4429,8.11852 1.7229,12.15375 4.7735,12.99024 3.0505,0.83649 7.872,-1.5268 11.8574,-4.67578 3.9854,-3.14898 7.1339,-7.08358 8.0195,-7.13282 0.7795,-0.0433 -0.1932,2.92279 -0.9746,7.12305 0.8083,-2.05972 1.2777,-4.22688 1.8555,-6.29101 1.6426,-5.86795 4.1686,-10.9022 5.8262,-15.48633 1.6575,-4.58413 2.4458,-8.71862 2.8886,-15.65625 0.4429,-6.93764 0.5411,-16.67932 0.5411,-23.91211 -1e-4,-7.2328 -0.099,-11.95631 1.1308,-19.48438 1.2301,-7.52806 3.7896,-17.85855 5.2656,-26.17383 1.4761,-8.31527 1.8688,-14.61346 1.918,-21.25586 0.049,-6.64239 -0.2455,-13.62909 -0.8359,-18.99218 -0.5905,-5.3631 -1.4768,-9.10322 -1.9688,-15.54883 -0.492,-6.44561 -0.5894,-15.59742 -0.3926,-34.58984 0.1969,-18.99242 0.6896,-47.82317 0.9356,-71.04688 0.246,-23.22371 0.2449,-40.83785 -0.2754,-52.64648 -0.4635,-10.51766 -1.3397,-16.4308 -3.125,-20.55274 z" />
      <path
         id="path1"
         style="display:inline;fill:none;fill-opacity:1;stroke:#ffffff;stroke-width:6;stroke-dasharray:none;stroke-opacity:1"
         d="m 116.92578,243.26758 c -0.0325,0.002 -0.066,0.009 -0.0996,0.0234 -0.53702,0.23045 -1.24883,1.97106 -2.81445,6.47656 -1.56562,4.5055 -3.98447,11.77542 -5.01953,17.18554 -1.03507,5.41013 -0.6873,8.95918 0.27148,12.375 0.95878,3.41583 2.52963,6.69867 3.31445,75.0586 0.78485,68.35992 0.78516,201.79406 0.78516,270.28516 0,68.49107 -6.4e-4,72.03492 3.93555,76.16796 3.93619,4.13304 11.808,8.85491 20.86133,12.00391 5.20793,1.81147 10.80571,3.10222 22.75195,4.43359 A 241.70261,214.80781 76.236745 0 1 152.33008,661.73828 241.70261,214.80781 76.236745 0 1 241.99023,459.375 l -0.0488,-0.10938 10.99023,-8.10156 c -2.22505,1.64785 -4.41999,3.34387 -6.58203,5.08789 a 241.70261,214.80781 76.236745 0 1 110.26953,-34.77343 241.70261,214.80781 76.236745 0 1 49.45313,6.29492 c 0.1129,-1.99008 0.2225,-3.9522 0.33007,-5.88282 -14.3096,-3.24017 -29.04939,-4.94146 -44.0625,-4.9414 -38.85413,4e-5 -76.41515,11.64705 -108.73242,33.71484 l 143.791,-106.04492 c 3.09241,3.7354 7.95575,2.48283 14.47851,-0.80273 1.80348,-16.58542 3.38394,-22.03507 4.96485,-28.13282 2.75536,-10.6278 5.51195,-23.22436 3.9375,-29.91601 -1.57445,-6.69165 -7.47828,-7.47929 -17.51563,-8.66016 -10.03735,-1.18086 -24.20853,-2.75422 -35.0332,-3.73828 -10.82468,-0.98406 -18.30267,-1.37734 -24.20703,-4.91992 -5.90437,-3.54258 -10.2348,-10.23542 -16.33594,-12.40039 -6.10114,-2.16497 -13.97195,0.19758 -29.7168,7.08594 -15.74485,6.88836 -39.36262,18.30237 -62.7832,25.78125 -23.42058,7.47888 -46.64374,11.02216 -64.94727,9.64453 -18.30353,-1.37764 -31.68607,-7.67658 -39.55859,-17.32032 -7.87252,-9.64373 -10.23444,-22.63158 -11.5957,-29.76562 -1.27619,-6.68816 -1.67304,-8.23032 -2.16016,-8.20703 z" />
      <path
         id="path4-2"
         style="display:inline;fill:none;fill-opacity:0;stroke:#ffffff;stroke-width:9;stroke-dasharray:none;stroke-opacity:1"
         d="m 581.88477,306.33789 c -10.2808,-0.34792 -21.50028,0.0344 -34.19922,1.07813 -25.39789,2.08747 -56.70847,6.81903 -80.34961,13.51562 -23.64114,6.69659 -39.61194,15.35732 -51.78906,22.24609 -11.37455,6.43474 -19.43857,11.32252 -23.86915,5.97071 L 247.88477,455.19336 c 32.31727,-22.06779 69.88024,-33.7148 108.73437,-33.71484 119.34699,-4.7e-4 221.38408,107.56747 227.90625,240.25976 0.85772,72.77638 -19.23487,171.03375 -124.29029,222.97279 L 613.41088,803.86732 C 714.49438,757.83911 770.11133,655.59961 770.11133,655.59961 h 0.002 v -0.002 c 4.31332,-7.9584 8.09225,-15.88107 11.50977,-24.48243 6.19293,-15.58666 11.20183,-33.39997 11.82812,-59.07617 0.6263,-25.67619 -3.1301,-59.21449 -9.39258,-85.65625 -6.26248,-26.44176 -15.03048,-45.78426 -26.51171,-64.15429 -11.48124,-18.37003 -25.67551,-35.7656 -42.23633,-51.42188 -16.56083,-15.65628 -35.48718,-29.57223 -53.0918,-40.00976 -17.60462,-10.43755 -33.88662,-17.39677 -51.76953,-21.1543 -8.94146,-1.87877 -18.28366,-2.95677 -28.56445,-3.30469 z m -334.01172,148.86523 -11.65235,8.5918 0.20899,0.4668 c 3.71558,-3.16566 7.53215,-6.18688 11.44336,-9.0586 z"
         sodipodi:nodetypes="cssscccccccccssssssssccccc" />
      <ellipse
         style="fill:none;fill-opacity:1;stroke:#ffffff;stroke-width:9.00543;stroke-dasharray:none;stroke-opacity:1"
         id="path3"
         cx="335.90375"
         cy="662.53802"
         rx="216.09695"
         ry="240.55074"
         transform="matrix(1,0,0.04908976,0.99879437,0,0)" />
    </g>
  </g>
</svg>
